<svg xmlns="http://www.w3.org/2000/svg" width="740" height="300" viewBox="0 0 740 300">
  <style>
    .key { fill: #f7f7f7; stroke: #bbb; rx: 8; ry: 8; }
    .label { font-family: system-ui, -apple-system, Segoe UI, Roboto, Noto Sans, sans-serif; font-size: 12px; fill: #222; dominant-baseline: middle; text-anchor: middle; }
    .title { font-size: 16px; font-weight: 700; fill: #333; }
  </style>
  <text x="10" y="20" class="title">Func</text>
  <g transform="translate(10,30)">
    <!-- row 1 -->
    <g>
      <g><rect class="key" width="60" height="60"/><text class="label" x="30" y="30">F1</text></g>
      <g transform="translate(70,0)"><rect class="key" width="60" height="60"/><text class="label" x="30" y="30">F2</text></g>
      <g transform="translate(140,0)"><rect class="key" width="60" height="60"/><text class="label" x="30" y="30">F3</text></g>
      <g transform="translate(210,0)"><rect class="key" width="60" height="60"/><text class="label" x="30" y="30">F4</text></g>
      <g transform="translate(280,0)"><rect class="key" width="60" height="60"/><text class="label" x="30" y="30">F5</text></g>
      <g transform="translate(350,0)"><rect class="key" width="60" height="60"/><text class="label" x="30" y="30">F6</text></g>
      <g transform="translate(420,0)"><rect class="key" width="60" height="60"/><text class="label" x="30" y="30">F7</text></g>
      <g transform="translate(490,0)"><rect class="key" width="60" height="60"/><text class="label" x="30" y="30">F8</text></g>
      <g transform="translate(560,0)"><rect class="key" width="60" height="60"/><text class="label" x="30" y="30">F9</text></g>
      <g transform="translate(630,0)"><rect class="key" width="60" height="60"/><text class="label" x="30" y="30">F10</text></g>
    </g>
    <!-- row 2 -->
    <g transform="translate(0,70)">
      <g><rect class="key" width="60" height="60"/><text class="label" x="30" y="30">SK(Win)</text></g>
      <g transform="translate(70,0)"><rect class="key" width="60" height="60"/><text class="label" x="30" y="30">—</text></g>
      <g transform="translate(140,0)"><rect class="key" width="60" height="60"/><text class="label" x="30" y="30">—</text></g>
      <g transform="translate(210,0)"><rect class="key" width="60" height="60"/><text class="label" x="30" y="30">—</text></g>
      <g transform="translate(280,0)"><rect class="key" width="60" height="60"/><text class="label" x="30" y="30">Alt+C</text></g>
      <g transform="translate(350,0)"><rect class="key" width="60" height="60"/><text class="label" x="30" y="30">To(SYS)</text></g>
      <g transform="translate(420,0)"><rect class="key" width="60" height="60"/><text class="label" x="30" y="30">To(WinDef)</text></g>
      <g transform="translate(490,0)"><rect class="key" width="60" height="60"/><text class="label" x="30" y="30">To(MacDef)</text></g>
      <g transform="translate(560,0)"><rect class="key" width="60" height="60"/><text class="label" x="30" y="30">Win+Ctrl+←</text></g>
      <g transform="translate(630,0)"><rect class="key" width="60" height="60"/><text class="label" x="30" y="30">Win+Ctrl+→</text></g>
    </g>
    <!-- row 3 -->
    <g transform="translate(0,140)">
      <g><rect class="key" width="60" height="60"/><text class="label" x="30" y="30">Win+I</text></g>
      <g transform="translate(70,0)"><rect class="key" width="60" height="60"/><text class="label" x="30" y="30">OpenBrowser</text></g>
      <g transform="translate(140,0)"><rect class="key" width="60" height="60"/><text class="label" x="30" y="30">—</text></g>
      <g transform="translate(210,0)"><rect class="key" width="60" height="60"/><text class="label" x="30" y="30">—</text></g>
      <g transform="translate(280,0)"><rect class="key" width="60" height="60"/><text class="label" x="30" y="30">—</text></g>
      <g transform="translate(350,0)"><rect class="key" width="60" height="60"/><text class="label" x="30" y="30">Ctrl+Alt+Del</text></g>
      <g transform="translate(420,0)"><rect class="key" width="60" height="60"/><text class="label" x="30" y="30">Win+Ctrl+D</text></g>
      <g transform="translate(490,0)"><rect class="key" width="60" height="60"/><text class="label" x="30" y="30">Win+Ctrl+F4</text></g>
      <g transform="translate(560,0)"><rect class="key" width="60" height="60"/><text class="label" x="30" y="30">F11</text></g>
      <g transform="translate(630,0)"><rect class="key" width="60" height="60"/><text class="label" x="30" y="30">F12</text></g>
    </g>
    <!-- thumbs row -->
    <g transform="translate(150,210)">
      <g><rect class="key" width="60" height="60"/><text class="label" x="30" y="30">TRNS</text></g>
      <g transform="translate(70,0)"><rect class="key" width="60" height="60"/><text class="label" x="30" y="30">TRNS</text></g>
      <g transform="translate(140,0)"><rect class="key" width="60" height="60"/><text class="label" x="30" y="30">TRNS</text></g>
      <g transform="translate(210,0)"><rect class="key" width="60" height="60"/><text class="label" x="30" y="30">TRNS</text></g>
      <g transform="translate(280,0)"><rect class="key" width="60" height="60"/><text class="label" x="30" y="30">TRNS</text></g>
      <g transform="translate(350,0)"><rect class="key" width="60" height="60"/><text class="label" x="30" y="30">TRNS</text></g>
    </g>
  </g>
</svg>

