<svg xmlns="http://www.w3.org/2000/svg" width="740" height="300" viewBox="0 0 740 300">
  <style>
    .key { fill: #f7f7f7; stroke: #bbb; rx: 8; ry: 8; }
    .label { font-family: system-ui, -apple-system, Segoe UI, Roboto, Noto Sans, sans-serif; font-size: 14px; fill: #222; dominant-baseline: middle; text-anchor: middle; }
    .title { font-size: 16px; font-weight: 700; fill: #333; }
  </style>
  <text x="10" y="20" class="title">WinDef</text>
  <!-- rows -->
  <g transform="translate(10,30)">
    <!-- row 1 -->
    <g transform="translate(0,0)">
      <!-- 10 keys -->
      <!-- positions x: 0..9 * (60+10) -->
      <g>
        <rect class="key" x="0" y="0" width="60" height="60"/>
        <text class="label" x="30" y="30">Q</text>
      </g>
      <g transform="translate(70,0)"><rect class="key" width="60" height="60"/><text class="label" x="30" y="30">W</text></g>
      <g transform="translate(140,0)"><rect class="key" width="60" height="60"/><text class="label" x="30" y="30">E</text></g>
      <g transform="translate(210,0)"><rect class="key" width="60" height="60"/><text class="label" x="30" y="30">R</text></g>
      <g transform="translate(280,0)"><rect class="key" width="60" height="60"/><text class="label" x="30" y="30">T</text></g>
      <g transform="translate(350,0)"><rect class="key" width="60" height="60"/><text class="label" x="30" y="30">Y</text></g>
      <g transform="translate(420,0)"><rect class="key" width="60" height="60"/><text class="label" x="30" y="30">U</text></g>
      <g transform="translate(490,0)"><rect class="key" width="60" height="60"/><text class="label" x="30" y="30">I</text></g>
      <g transform="translate(560,0)"><rect class="key" width="60" height="60"/><text class="label" x="30" y="30">O</text></g>
      <g transform="translate(630,0)"><rect class="key" width="60" height="60"/><text class="label" x="30" y="30">P</text></g>
    </g>
    <!-- row 2 -->
    <g transform="translate(0,70)">
      <g><rect class="key" width="60" height="60"/><text class="label" x="30" y="30">A</text></g>
      <g transform="translate(70,0)"><rect class="key" width="60" height="60"/><text class="label" x="30" y="30">S</text></g>
      <g transform="translate(140,0)"><rect class="key" width="60" height="60"/><text class="label" x="30" y="30">D</text></g>
      <g transform="translate(210,0)"><rect class="key" width="60" height="60"/><text class="label" x="30" y="30">F</text></g>
      <g transform="translate(280,0)"><rect class="key" width="60" height="60"/><text class="label" x="30" y="30">G</text></g>
      <g transform="translate(350,0)"><rect class="key" width="60" height="60"/><text class="label" x="30" y="30">H</text></g>
      <g transform="translate(420,0)"><rect class="key" width="60" height="60"/><text class="label" x="30" y="30">J</text></g>
      <g transform="translate(490,0)"><rect class="key" width="60" height="60"/><text class="label" x="30" y="30">K</text></g>
      <g transform="translate(560,0)"><rect class="key" width="60" height="60"/><text class="label" x="30" y="30">L</text></g>
      <g transform="translate(630,0)"><rect class="key" width="60" height="60"/><text class="label" x="30" y="30">;</text></g>
    </g>
    <!-- row 3 -->
    <g transform="translate(0,140)">
      <g><rect class="key" width="60" height="60"/><text class="label" x="30" y="30">Z</text></g>
      <g transform="translate(70,0)"><rect class="key" width="60" height="60"/><text class="label" x="30" y="30">X</text></g>
      <g transform="translate(140,0)"><rect class="key" width="60" height="60"/><text class="label" x="30" y="30">C</text></g>
      <g transform="translate(210,0)"><rect class="key" width="60" height="60"/><text class="label" x="30" y="30">V</text></g>
      <g transform="translate(280,0)"><rect class="key" width="60" height="60"/><text class="label" x="30" y="30">B</text></g>
      <g transform="translate(350,0)"><rect class="key" width="60" height="60"/><text class="label" x="30" y="30">N</text></g>
      <g transform="translate(420,0)"><rect class="key" width="60" height="60"/><text class="label" x="30" y="30">M</text></g>
      <g transform="translate(490,0)"><rect class="key" width="60" height="60"/><text class="label" x="30" y="30">,</text></g>
      <g transform="translate(560,0)"><rect class="key" width="60" height="60"/><text class="label" x="30" y="30">.</text></g>
      <g transform="translate(630,0)"><rect class="key" width="60" height="60"/><text class="label" x="30" y="30">/</text></g>
    </g>
    <!-- thumbs row (6 keys centered) -->
    <g transform="translate(150,210)">
      <g><rect class="key" width="60" height="60"/><text class="label" x="30" y="30">Alt/Esc</text></g>
      <g transform="translate(70,0)"><rect class="key" width="60" height="60"/><text class="label" x="30" y="30">MO(Code)</text></g>
      <g transform="translate(140,0)"><rect class="key" width="60" height="60"/><text class="label" x="30" y="30">Shift/Space</text></g>
      <g transform="translate(210,0)"><rect class="key" width="60" height="60"/><text class="label" x="30" y="30">Ctrl/Enter</text></g>
      <g transform="translate(280,0)"><rect class="key" width="60" height="60"/><text class="label" x="30" y="30">LT(WinNav/Bksp)</text></g>
      <g transform="translate(350,0)"><rect class="key" width="60" height="60"/><text class="label" x="30" y="30">Tab</text></g>
    </g>
  </g>
</svg>

